<svg xmlns="http://www.w3.org/2000/svg" viewBox="0 0 616.32 80.58"><defs><style>.cls-1{stroke:#000;stroke-miterlimit:10;}</style></defs><title>Asset 3</title><g id="Layer_2" data-name="Layer 2"><g id="Layer_1-2" data-name="Layer 1"><path class="cls-1" d="M292.78.5a39.79,39.79,0,1,0,39.8,39.79A39.8,39.8,0,0,0,292.78.5ZM278.65,59.81a3.17,3.17,0,0,1-6.35,0v-39a3.17,3.17,0,0,1,6.35,0Zm17.31,0a3.17,3.17,0,0,1-6.35,0V42.07a3.17,3.17,0,0,1,6.35,0Zm17.31,0a3.17,3.17,0,0,1-6.35,0v-39a3.17,3.17,0,0,1,6.35,0Z"/><path class="cls-1" d="M30.44,59.76A1.17,1.17,0,0,1,29.25,61,1.1,1.1,0,0,1,28,59.76V44.53l-.07-1.32-.2-1.26-.33-1.32L27,39.36l-.6-1.26-.73-1.26-.79-1.13-1-1.13-1.06-.93-1.19-.86-1.26-.73-1.26-.6L17.79,31l-1.32-.26-1.33-.2-1.19-.07H3V59.76A1.22,1.22,0,0,1,1.76,61,1.22,1.22,0,0,1,.5,59.76V17a1.17,1.17,0,0,1,1.26-1.19A1.17,1.17,0,0,1,3,17V28H14l1.39.07,1.52.2,1.52.33,1.52.53c.07,0,.07,0,.13.07l1.39.6c0,.07,0,.07.07.07l1.39.79.07.07,1.26.93c.07,0,.07.07.13.07l1.19,1.06c0,.07,0,.07.07.07l1.06,1.19c0,.07.07.07.07.13l.93,1.26c.07,0,.07,0,.07.07l.8,1.39.07.07.6,1.39c.07.07.07.07.07.13L29.78,40l.4,1.52.2,1.52.07,1.46v15.3Z"/><path class="cls-1" d="M67.6,29.3V59.82a1.26,1.26,0,0,1-2.52,0V53.2l-.2.33-.07.07-.93,1.32-.07.07-1.06,1.19-.07.07L61.5,57.31c0,.07,0,.07-.07.07l-1.26.93c-.07.07-.07.07-.13.07l-1.33.79c-.07,0-.07.07-.13.07l-1.39.66-1.52.53-1.52.33-1.52.2L51.1,61H49.65l-1.52-.27-1.52-.33-1.52-.53-1.52-.66c-.07,0-.07-.07-.13-.07l-1.33-.79c-.07,0-.07,0-.13-.07l-1.26-.93-.07-.07-1.19-1.06-.07-.07L38.32,55c-.07,0-.07-.07-.13-.07l-.93-1.32-.07-.07-.73-1.32-.73-1.52-.53-1.52-.33-1.52-.26-1.52-.07-1.52.07-1.46.2-1.52.4-1.52.46-1.59L36.4,37c0-.07,0-.07.07-.13l.73-1.32c.07-.07.07-.07.07-.13l.93-1.26c.07,0,.07-.07.13-.07l1.06-1.19c0-.07.07-.07.07-.13l1.19-1c0-.07.07-.07.07-.13L42,30.75c.07,0,.07,0,.13-.07L43.42,30c.07-.07.07-.07.13-.07l1.39-.66a.21.21,0,0,0,.13-.07l1.39-.46L48,28.37l1.52-.26L51,28l1.46.07,1.52.2,1.52.4,1.52.46c.07.07.07.07.13.07l1.39.66c.07,0,.07,0,.13.07l1.33.73c0,.07.07.07.13.07l1.26.93c0,.07.07.07.07.13l1.19,1c0,.07.07.07.07.13l1.06,1.19c.07,0,.07,0,.07.07l.93,1.26c.07.07.07.07.07.13l.2.27V29.3a1.26,1.26,0,0,1,2.52,0ZM65.08,44.53v-.07L65,43.2l-.2-1.26-.27-1.32-.46-1.26-.6-1.26-.66-1.19L62,35.72l-1-1.06-1.06-1-1.19-.86-1.19-.73-1.32-.53-1.33-.46-1.32-.33-1.26-.2H51l-1.26.07-1.33.13-1.32.33-1.19.46-1.33.53-1.19.73-1.19.86-1.06,1-1,1.06-.86,1.19-.73,1.19L38,39.43l-.4,1.32-.33,1.32-.13,1.26-.07,1.26.07,1.26.13,1.32.33,1.26.46,1.32.6,1.26.66,1.19.86,1.19,1,1.06,1.06,1,1.19.8,1.19.73,1.33.6,1.32.46,1.33.33,1.26.13,1.19.07,1.32-.07,1.33-.2L54.95,58l1.32-.46,1.26-.6,1.19-.73,1.19-.8,1.06-1,1-1.06.86-1.19L63.56,51l.6-1.32.4-1.26L64.88,47,65,45.72Z"/><path class="cls-1" d="M105.22,59.63v.13l-.07,1.06c0,.07,0,.07-.07.13l-.2,1.13v.13l-.33,1.13a.24.24,0,0,1-.07.2L104,64.66a.2.2,0,0,1-.07.13l-.66,1.06c0,.07,0,.13-.07.13l-.8,1.06c0,.07,0,.07-.07.13l-.93,1c0,.07-.07.07-.07.13l-1.06.93c-.07,0-.07.07-.13.07l-1.13.86-1.39.79-1.46.66-1.46.53a.25.25,0,0,1-.2.07l-2.78.66h-.2l-2.78.2c-.07,0-.07.07-.13.07l-.07-.07-2-.13h-.2l-2.05-.4c-.07,0-.07-.07-.13-.07l-2.05-.73c-.07,0-.13-.07-.2-.07l-2-1.06a.14.14,0,0,1-.13-.13L78,69.16,77.86,69l-1.66-1.59c0-.07-.07-.13-.07-.2l-1.39-1.79c0-.07-.07-.13-.07-.2l-1.06-2a1.13,1.13,0,0,1,.53-1.66,1.23,1.23,0,0,1,1.66.53l1,1.92,1.26,1.66,1.46,1.52,1.72,1.26,1.79.93,1.92.66,1.92.4,1.79.13,2.65-.2,2.65-.6,1.33-.46,1.26-.6L97.67,68l1.06-.73.93-.86.86-.93.66-.93.6-1,.4-1,.33-1,.13-1,.07-1V53.07l-.13.33c-.07,0-.07.07-.13.07l-.93,1.26c0,.07,0,.07-.07.13l-1.06,1.19-.07.07-1.19,1.06-.07.07-1.26.93c-.07,0-.07.07-.13.07l-1.32.8c-.07,0-.07.07-.13.07l-1.39.6-1.52.53-1.52.4-1.52.2-1.52.07h-.07l-1.39-.07-1.52-.2-1.52-.33-1.52-.53-1.52-.66c-.07,0-.07-.07-.13-.07l-1.32-.8c-.07,0-.07-.07-.13-.07l-1.26-.93-.07-.07-1.19-1.06c0-.07,0-.07-.07-.07l-1.06-1.19-.13-.13-.86-1.26c-.07,0-.07-.07-.13-.07L74.09,52C74,52,74,52,74,51.94l-.66-1.39L72.83,49l-.33-1.59-.27-1.52-.07-1.46L72.23,43l.2-1.52.4-1.59.53-1.52L74,36.91c0-.07,0-.13.07-.13l.73-1.32.13-.13.86-1.26.13-.13L77,32.81c0-.07.07-.07.07-.13l1.19-1.06.07-.07,1.26-.93c.07,0,.07-.07.13-.07L81,29.76c.07,0,.07,0,.13-.07l1.39-.6A.21.21,0,0,0,82.7,29l1.39-.46,1.52-.4,1.52-.2,1.52-.07,1.46.07,1.52.2,1.52.33,1.52.53c.07,0,.07,0,.13.07l1.39.6,1.46.86c.07,0,.07.07.13.07l1.26.93.07.07,1.19,1.06c0,.07.07.07.07.13l1.06,1.13c.07.07.07.07.07.13l.93,1.26c.07,0,.07.07.07.13l.2.27V29.16a1.26,1.26,0,1,1,2.52,0ZM102.7,44.4v-.07l-.07-1.26-.2-1.26-.26-1.32-.46-1.32-.6-1.19-.66-1.26-.86-1.13-1-1.13-1.06-.93-1.19-.86-1.26-.73-1.26-.6-1.33-.46-1.32-.26-1.26-.2-1.26-.07-1.26.07-1.32.2L84.75,31l-1.19.4-1.32.6L81,32.67l-1.19.86-1.06.93-1,1.13-.86,1.13L76.27,38l-.66,1.32-.4,1.32-.33,1.26-.13,1.32-.07,1.26.07,1.26.2,1.26.26,1.32.46,1.32.53,1.19.73,1.26.86,1.13,1,1.13,1.06.93,1.19.86,1.19.73,1.32.6,1.33.46,1.32.27,1.26.2,1.19.07L90,58.37l1.32-.2,1.33-.33,1.26-.4,1.26-.6,1.19-.73,1.19-.86,1.06-.93,1-1.13.86-1.13.66-1.26.66-1.32.4-1.32.33-1.26.13-1.32Z"/><path class="cls-1" d="M112.9,59.29V16.58a1.26,1.26,0,0,1,2.52,0V59.29a1.26,1.26,0,0,1-2.52,0Z"/><path class="cls-1" d="M152.31,29.3V59.82a1.26,1.26,0,0,1-2.52,0V53.2l-.2.33-.07.07-.93,1.32-.07.07-1.06,1.19-.07.07-1.19,1.06c0,.07,0,.07-.07.07l-1.26.93c-.07.07-.07.07-.13.07l-1.33.79c-.07,0-.07.07-.13.07l-1.39.66-1.52.53-1.52.33-1.52.2-1.52.07h-1.46l-1.52-.27-1.52-.33-1.52-.53-1.52-.66c-.07,0-.07-.07-.13-.07l-1.33-.79c-.07,0-.07,0-.13-.07l-1.26-.93-.07-.07-1.19-1.06-.07-.07L123,55c-.07,0-.07-.07-.13-.07L122,53.6l-.07-.07-.73-1.32-.73-1.52-.53-1.52-.33-1.52-.26-1.52-.07-1.52.07-1.46.2-1.52.4-1.52.46-1.59.73-1.46c0-.07,0-.07.07-.13l.73-1.32c.07-.07.07-.07.07-.13l.93-1.26c.07,0,.07-.07.13-.07l1.06-1.19c0-.07.07-.07.07-.13l1.19-1c0-.07.07-.07.07-.13l1.26-.93c.07,0,.07,0,.13-.07l1.33-.73c.07-.07.07-.07.13-.07l1.39-.66a.21.21,0,0,0,.13-.07l1.39-.46,1.52-.33,1.52-.26,1.52-.07,1.46.07,1.52.2,1.52.4,1.52.46c.07.07.07.07.13.07l1.39.66c.07,0,.07,0,.13.07l1.33.73c0,.07.07.07.13.07l1.26.93c0,.07.07.07.07.13l1.19,1c0,.07.07.07.07.13l1.06,1.19c.07,0,.07,0,.07.07l.93,1.26c.07.07.07.07.07.13l.2.27V29.3a1.26,1.26,0,0,1,2.52,0ZM149.8,44.53v-.07l-.07-1.26-.2-1.26-.27-1.32-.46-1.26-.6-1.26-.66-1.19-.86-1.19-1-1.06-1.06-1-1.19-.86-1.19-.73-1.32-.53-1.33-.46-1.32-.33-1.26-.2h-1.26l-1.26.07-1.33.13-1.32.33-1.19.46-1.33.53-1.19.73-1.19.86-1.06,1-1,1.06L124,36.91l-.73,1.19-.6,1.32-.4,1.32L122,42.08l-.13,1.26-.07,1.26.07,1.26.13,1.32.33,1.26.46,1.32.6,1.26.66,1.19.86,1.19,1,1.06,1.06,1,1.19.8,1.19.73,1.33.6L132,58l1.33.33,1.26.13,1.19.07,1.32-.07,1.33-.2,1.26-.27,1.32-.46,1.26-.6,1.19-.73,1.19-.8,1.06-1,1-1.06.86-1.19.73-1.26.6-1.32.4-1.26L149.6,47l.13-1.32Z"/><path class="cls-1" d="M187.75,44.4V59.63a1.17,1.17,0,0,1-1.19,1.26,1.1,1.1,0,0,1-1.26-1.26V44.4l-.07-1.32-.2-1.32-.26-1.26-.46-1.32-.6-1.19L183,36.71l-.8-1.19-1-1.06-1.06-.93-1.19-.86-1.26-.73-1.26-.6-1.33-.46-1.32-.26-1.33-.2-1.26-.07-1.39.07-1.52.26-1.52.46-1.52.6-1.46.79-1.39,1-1.19,1.13-.86,1v24a1.26,1.26,0,0,1-2.52,0V29.1a1.26,1.26,0,0,1,2.52,0v3l.46-.4.13-.13,1.46-1.06c.07,0,.07-.07.13-.07l1.59-.86c.07-.07.07-.07.13-.07l1.66-.73H166l1.66-.46c.07,0,.07-.07.13-.07l1.66-.26h.13l1.59-.07,1.52.07,1.52.2,1.52.33,1.52.53c.07,0,.07,0,.13.07l1.39.6a.21.21,0,0,1,.13.07l1.32.79.07.07,1.32.93.07.07,1.19,1.06.07.07L184,33.93c0,.07.07.07.07.13l.93,1.26c.07,0,.07,0,.07.07l.79,1.39.07.07.66,1.39.53,1.52.33,1.59.2,1.52.07,1.46Z"/><path class="cls-1" d="M225.44,16.85V59.56a1.26,1.26,0,0,1-2.52,0V52.94l-.13.33c-.07,0-.07.07-.07.13l-.93,1.26c-.07,0-.07.07-.13.07l-1.06,1.19-.07.07L219.34,57c0,.07,0,.07-.07.07L218,58c-.07.07-.07.07-.13.07l-1.33.79c-.07.07-.07.07-.13.07l-1.39.66-1.52.53-1.52.33-1.52.2-1.46.13h-.13l-1.39-.07-1.52-.2-1.52-.4-1.52-.53L201.39,59a.2.2,0,0,1-.13-.07l-1.33-.79-.07-.07-1.33-.93-.07-.07L197.29,56l-.07-.07-1.06-1.19c-.07,0-.07,0-.07-.07l-.93-1.26c-.07-.07-.07-.07-.07-.13l-.8-1.32-.73-1.52L193,48.9l-.33-1.52-.2-1.52-.07-1.52.07-1.46.2-1.52.33-1.52.53-1.52.66-1.52c0-.07.07-.07.07-.13l.8-1.32c0-.07,0-.07.07-.13l.93-1.26.07-.07,1.06-1.19c0-.07,0-.07.07-.07l1.19-1.06c0-.07.07-.07.07-.13l1.33-.93.07-.07,1.33-.73c.07-.07.07-.07.13-.07l1.39-.66c.07,0,.07,0,.13-.07l1.39-.46,1.52-.33,1.52-.27,1.52-.07,1.46.07,1.52.2,1.52.4,1.52.46c.07.07.07.07.13.07l1.39.66c.07,0,.07,0,.13.07l1.33.73c.07.07.07.07.13.07l1.26.93c0,.07.07.07.07.13l1.19,1.06c.07,0,.07,0,.07.07l1.06,1.19c.07,0,.07.07.13.07l.93,1.26c0,.07,0,.07.07.13l.13.27V16.85a1.26,1.26,0,0,1,2.52,0ZM222.92,44.2,222.86,43l-.13-1.32-.33-1.32-.46-1.26-.53-1.26-.73-1.19-.86-1.19-1-1.06-1.06-1-1.19-.86-1.19-.73-1.26-.53-1.39-.46-1.32-.33-1.26-.13-1.26-.07-1.26.07-1.33.13-1.26.33-1.26.46-1.33.53-1.19.73-1.19.86-1.06,1-1,1.06-.79,1.19-.73,1.19-.6,1.32-.46,1.32-.33,1.32L195,43.07l-.07,1.26.07,1.26.2,1.32.27,1.32.46,1.26.6,1.26.73,1.19.79,1.19,1,1.06,1.06,1,1.19.86,1.19.66,1.39.66,1.26.4,1.33.33,1.32.13,1.19.07,1.33-.07,1.26-.2,1.32-.26,1.26-.46,1.26-.6,1.19-.66,1.19-.86,1.06-1,1-1.06.86-1.19.73-1.19.6-1.39.4-1.26.33-1.32.2-1.26V44.2Z"/><path class="cls-1" d="M356.45,59.29V16.58a1.26,1.26,0,0,1,2.52,0V59.29a1.26,1.26,0,0,1-2.52,0Z"/><path class="cls-1" d="M388.58,29.16,367.65,71.48a1.29,1.29,0,0,1-1.66.6,1.23,1.23,0,0,1-.53-1.66l9.34-18.87L361.49,29.36a1.43,1.43,0,0,1,.4-1.85,1.32,1.32,0,0,1,1.79.6L376.06,48.9,386.39,28a1.21,1.21,0,0,1,1.66-.53A1.23,1.23,0,0,1,388.58,29.16Z"/><path class="cls-1" d="M421.9,16.85V59.56a1.26,1.26,0,0,1-2.52,0V52.94l-.13.33c-.07,0-.07.07-.07.13l-.93,1.26c-.07,0-.07.07-.13.07l-1.06,1.19L417,56,415.8,57c0,.07,0,.07-.07.07l-1.26.93c-.07.07-.07.07-.13.07L413,58.9c-.07.07-.07.07-.13.07l-1.39.66-1.52.53-1.52.33-1.52.2-1.46.13h-.13l-1.39-.07-1.52-.2-1.52-.4-1.52-.53L397.85,59a.21.21,0,0,1-.13-.07l-1.32-.79-.07-.07L395,57.11l-.07-.07L393.75,56l-.07-.07-1.06-1.19c-.07,0-.07,0-.07-.07l-.93-1.26c-.07-.07-.07-.07-.07-.13l-.8-1.32L390,50.42l-.53-1.52-.33-1.52-.2-1.52-.07-1.52.07-1.46.2-1.52.33-1.52L390,38.3l.66-1.52c0-.07.07-.07.07-.13l.8-1.32c0-.07,0-.07.07-.13l.93-1.26.07-.07,1.06-1.19c0-.07,0-.07.07-.07l1.19-1.06c0-.07.07-.07.07-.13l1.32-.93.07-.07,1.32-.73c.07-.07.07-.07.13-.07l1.39-.66c.07,0,.07,0,.13-.07l1.39-.46,1.52-.33,1.52-.27,1.52-.07,1.46.07,1.52.2,1.52.4,1.52.46c.07.07.07.07.13.07l1.39.66c.07,0,.07,0,.13.07l1.32.73c.07.07.07.07.13.07l1.26.93c0,.07.07.07.07.13L417,32.61c.07,0,.07,0,.07.07l1.06,1.19c.07,0,.07.07.13.07l.93,1.26c0,.07,0,.07.07.13l.13.27V16.85a1.26,1.26,0,0,1,2.52,0ZM419.38,44.2,419.31,43l-.13-1.32-.33-1.32-.46-1.26-.53-1.26-.73-1.19-.86-1.19-1-1.06-1.06-1L413,32.54l-1.19-.73-1.26-.53-1.39-.46-1.32-.33-1.26-.13-1.26-.07-1.26.07-1.32.13-1.26.33-1.26.46-1.33.53-1.19.73-1.19.86-1.06,1-1,1.06-.79,1.19L393,37.84l-.6,1.32-.46,1.32-.33,1.32-.13,1.26-.07,1.26.07,1.26.2,1.32.26,1.32.46,1.26.6,1.26.73,1.19.79,1.19,1,1.06,1.06,1,1.19.86,1.19.66,1.39.66,1.26.4,1.33.33,1.32.13,1.19.07,1.32-.07L408,58l1.33-.26,1.26-.46,1.26-.6,1.19-.66,1.19-.86,1.06-1,1-1.06.86-1.19.73-1.19.6-1.39.4-1.26.33-1.32.2-1.26V44.2Z"/><path class="cls-1" d="M439.25,27.77A1.17,1.17,0,0,1,440.51,29a1.22,1.22,0,0,1-1.26,1.26h-4.9V59.49a1.16,1.16,0,0,1-1.19,1.26,1.1,1.1,0,0,1-1.26-1.26V30.22h-4.84A1.1,1.1,0,0,1,425.8,29a1.17,1.17,0,0,1,1.26-1.19h4.84v-11a1.22,1.22,0,0,1,1.26-1.26,1.17,1.17,0,0,1,1.19,1.26v11Z"/><path class="cls-1" d="M474.09,45.19c-.07,0-.07,0-.07.07H474v.07h-.07c0,.07,0,.07-.07.07h-.07c0,.07,0,.07-.07.07l-.07.07h-.2l-.07.07H444v.07l.2,1.26.33,1.32.4,1.32.6,1.26.73,1.19.79,1.13,1,1.13,1.06.93,1.19.86,1.26.73,1.32.6,1.26.46,1.32.27,1.32.2,1.26.07,1.39-.07,1.52-.27,1.52-.46L464,57l1.46-.79,1.39-1L468,54.06l1.19-1.39A1.22,1.22,0,1,1,471,54.26l-1.19,1.46-.07.07L468.4,57l-.13.13-1.46,1.06c-.07,0-.07.07-.13.07l-1.59.86c-.07.07-.07.07-.13.07l-1.66.66c0,.07-.07.07-.13.07l-1.66.46c-.07,0-.07.07-.13.07l-1.66.26h-.13l-1.59.07-1.52-.07-1.52-.2-1.52-.33-1.52-.53L450.38,59l-.07-.07-1.39-.79-.07-.07-1.26-.93c-.07,0-.07,0-.13-.07l-1.19-1.06c0-.07,0-.07-.07-.07l-1.06-1.19c0-.07-.07-.07-.07-.13l-.93-1.26c-.07,0-.07,0-.07-.07l-.8-1.39-.73-1.46L442.1,49l-.4-1.59-.2-1.52-.07-1.46v-.2l.07-1.26.2-1.52.33-1.59.53-1.52.66-1.46c0-.07,0-.07.07-.13l.8-1.32c0-.07,0-.07.07-.13l.93-1.26c0-.07.07-.07.07-.13l1.06-1.13c0-.07.07-.07.07-.13l1.19-1.06a.21.21,0,0,0,.13-.07l1.26-.93.07-.07,1.33-.79c.07,0,.13,0,.13-.07l1.39-.6c.07,0,.07-.07.13-.07l1.39-.46,1.59-.4,1.46-.2,1.52-.07,1.46.07,1.52.2,1.52.33L464,29,464,29l1.39.6,1.46.86c.07,0,.07.07.13.07l1.26.93.07.07,1.19,1.06.13.13,1.06,1.13c0,.07,0,.07.07.13l.93,1.26c0,.07,0,.07.07.13l.79,1.32v.13l.66,1.39.53,1.52.4,1.52.2,1.52.07,1.46v.27l-.07.07v.2c-.07,0-.07,0-.07.07v.07l-.07.07-.07.07v.07h-.07ZM444,43.07h28l-.07-.07-.13-1.26-.33-1.32-.46-1.32-.53-1.19-.73-1.26-.86-1.13-1-1.13-1.06-.93-1.13-.86-1.33-.73-1.19-.6-1.39-.46-1.33-.26-1.26-.2-1.26-.07-1.26.07-1.33.2-1.26.33-1.26.4-1.26.6-1.26.73-1.19.86L448,34.4l-1,1.13-.79,1.13-.73,1.26-.6,1.32-.46,1.32-.33,1.26Z"/><path class="cls-1" d="M506.75,58.7a1.26,1.26,0,0,1,.13,1.79,1.11,1.11,0,0,1-.93.4,1.06,1.06,0,0,1-.8-.27L486.21,44.86l-3.44,2.91V59.69a1.17,1.17,0,0,1-1.26,1.19,1.11,1.11,0,0,1-1.19-1.19V17a1.17,1.17,0,0,1,1.19-1.26A1.1,1.1,0,0,1,482.77,17V44.53l19.34-16.29a1.09,1.09,0,0,1,1.72.13,1.19,1.19,0,0,1-.13,1.72L488.13,43.2Z"/><path class="cls-1" d="M540.13,44.4V59.63a1.17,1.17,0,0,1-1.19,1.26,1.1,1.1,0,0,1-1.26-1.26V44.4l-.07-1.32-.2-1.32-.26-1.26-.46-1.32-.6-1.19-.73-1.26-.8-1.19-1-1.06-1.06-.93-1.19-.86-1.26-.73-1.26-.6-1.32-.46-1.33-.26-1.32-.2-1.26-.07-1.39.07-1.52.26-1.52.46-1.52.6-1.46.79-1.39,1-1.19,1.13-.86,1v24a1.26,1.26,0,0,1-2.52,0V29.1a1.26,1.26,0,0,1,2.52,0v3l.46-.4.13-.13,1.46-1.06c.07,0,.07-.07.13-.07l1.59-.86c.07-.07.07-.07.13-.07l1.66-.73h.13l1.66-.46c.07,0,.07-.07.13-.07l1.66-.26H522l1.59-.07,1.52.07,1.52.2,1.52.33,1.52.53c.07,0,.07,0,.13.07l1.39.6a.21.21,0,0,1,.13.07l1.32.79.07.07,1.33.93.07.07,1.19,1.06.07.07,1.06,1.19c0,.07.07.07.07.13l.93,1.26c.07,0,.07,0,.07.07l.79,1.39.07.07.66,1.39.53,1.52.33,1.59.2,1.52.07,1.46Z"/><path class="cls-1" d="M547.81,22.08a1.56,1.56,0,0,1,1.59,1.52,1.5,1.5,0,0,1-1.59,1.46,1.44,1.44,0,0,1-1.52-1.46A1.5,1.5,0,0,1,547.81,22.08Zm1.46,7.68V59.49a1.26,1.26,0,0,1-2.52,0V29.76A1.1,1.1,0,0,1,548,28.5,1.22,1.22,0,0,1,549.27,29.76Z"/><path class="cls-1" d="M583,58.7a1.26,1.26,0,0,1,.13,1.79,1.11,1.11,0,0,1-.93.4,1.06,1.06,0,0,1-.8-.27L562.45,44.86,559,47.77V59.69a1.17,1.17,0,0,1-1.26,1.19,1.11,1.11,0,0,1-1.19-1.19V17a1.17,1.17,0,0,1,1.19-1.26A1.1,1.1,0,0,1,559,17V44.53l19.34-16.29a1.09,1.09,0,0,1,1.72.13,1.19,1.19,0,0,1-.13,1.72L564.37,43.2Z"/><path class="cls-1" d="M615.38,58.7a1.26,1.26,0,0,1,.13,1.79,1.11,1.11,0,0,1-.93.4,1.06,1.06,0,0,1-.79-.27L594.84,44.86l-3.44,2.91V59.69a1.17,1.17,0,0,1-1.26,1.19,1.11,1.11,0,0,1-1.19-1.19V17a1.17,1.17,0,0,1,1.19-1.26A1.1,1.1,0,0,1,591.4,17V44.53l19.34-16.29a1.09,1.09,0,0,1,1.72.13,1.18,1.18,0,0,1-.13,1.72L596.76,43.2Z"/></g></g></svg>